<svg width="204" height="100" viewBox="0 0 204 100" fill="none" xmlns="http://www.w3.org/2000/svg">
<path d="M86.7444 95.5698C69.5005 89.6786 38.3463 79.9943 19.8912 79.996C6.629 79.9972 -0.00140152 89.9994 2.22211e-07 100H89.9955C89.9976 98.156 88.914 96.311 86.7444 95.5698Z" fill="#FFD500"/>
<path d="M95.5698 86.7444C89.6786 69.5005 79.9943 38.3463 79.996 19.8912C79.9972 6.629 89.9994 -0.00140152 100 2.22211e-07V89.9955C98.156 89.9976 96.311 88.914 95.5698 86.7444Z" fill="#FFD500"/>
<path d="M93.7536 87.4966C94.7618 89.5509 94.2276 91.6178 92.9277 92.9207C91.6254 94.2261 89.5544 94.7645 87.4962 93.7545C71.1373 85.7269 42.2601 70.5454 29.2116 57.4945C19.8346 48.1158 22.2189 36.3548 29.2913 29.2843C36.3623 22.2153 48.1195 19.8349 57.4944 29.2116C70.5428 42.2625 85.7252 71.1385 93.7536 87.4966Z" fill="#FFD500"/>
<path d="M111.5 55C110.519 55.0008 109.548 55.1941 108.641 55.5688C108.628 55.5738 108.615 55.5829 108.602 55.5884C105.816 56.7555 104.002 59.4796 104 62.5V88.75C104 94.9632 109.037 100 115.25 100H134C138.142 100 141.5 96.6421 141.5 92.5C141.5 88.3579 138.142 85 134 85H122.75C120.679 85 119 83.3211 119 81.25V70H124C124.609 70 125.19 69.7631 125.621 69.3433C125.682 69.2833 125.739 69.2177 125.794 69.1504C126.552 68.2268 126.486 66.8797 125.641 66.0352L116.803 57.1973C116.924 57.3181 117.038 57.4451 117.149 57.5732C117.027 57.4326 116.898 57.2951 116.764 57.1631C116.454 56.8573 116.118 56.5959 115.772 56.355C115.675 56.2859 115.575 56.2191 115.475 56.1548C115.112 55.9274 114.74 55.7234 114.352 55.564C114.298 55.5455 114.244 55.5276 114.19 55.5102C113.84 55.3756 113.482 55.2704 113.119 55.1904C113.001 55.1639 112.883 55.1404 112.765 55.1196C112.346 55.0484 111.923 55 111.5 55Z" fill="#003310"/>
<path d="M166.017 49.2188C164.099 49.22 162.182 49.9513 160.719 51.4136C157.79 54.343 157.79 59.0921 160.719 62.0215L180.504 81.8066C180.856 82.1582 181.053 82.6351 181.053 83.1323C181.049 84.1584 180.221 84.9907 179.195 85C179.189 85.0025 179.184 85.005 179.178 85.0075C179.172 85.005 179.167 85.0025 179.161 85H166.5V80C166.5 79.3915 166.263 78.8101 165.843 78.3789C165.783 78.3173 165.717 78.2582 165.65 78.2031C164.727 77.4452 163.38 77.5118 162.535 78.3569L153.697 87.1973C153.747 87.148 153.803 87.1083 153.854 87.0605C153.11 87.7644 152.5 88.6201 152.088 89.6021C152.083 89.6154 152.074 89.6278 152.069 89.641C151.694 90.5476 151.501 91.5189 151.5 92.4999C151.501 93.4809 151.694 94.4522 152.069 95.3588C152.074 95.3722 152.083 95.3845 152.088 95.3978C153.255 98.1836 155.98 99.9975 159 99.9998H192.75C194.402 99.9538 196.023 99.5446 197.499 98.8011C201.416 96.9775 203.943 93.0709 204 88.7498C203.999 87.4722 203.78 86.204 203.353 84.9998C202.794 83.4186 201.889 81.9822 200.704 80.7957L171.351 51.4427L171.317 51.4061C169.852 49.9458 167.934 49.2174 166.017 49.2188Z" fill="#003310"/>
<path d="M104 0V37.5C104 41.6421 107.358 45 111.5 45C115.642 45 119 41.6421 119 37.5V25.6055C119 24.7175 119.535 23.9169 120.355 23.5767C121.176 23.2362 122.122 23.4241 122.75 24.0527L137.738 39.0405L134.188 42.5903C132.724 44.0536 133.761 46.5564 135.831 46.5552H148.336C148.339 46.5552 148.344 46.5527 148.346 46.5527C149.314 46.5502 150.272 46.3601 151.168 45.9936C151.187 45.9861 151.208 45.9824 151.227 45.9741C152.107 45.6033 152.908 45.068 153.588 44.397C153.928 44.0625 154.234 43.6971 154.506 43.3032C154.534 43.262 154.562 43.2205 154.589 43.1787C155.097 42.4082 155.471 41.5393 155.668 40.6055C155.674 40.5778 155.679 40.5502 155.685 40.5225C155.779 40.0475 155.831 39.5579 155.831 39.0552V38.8208C155.777 36.9104 154.997 35.0926 153.649 33.7378L153.644 33.7353C153.638 33.729 153.631 33.7222 153.624 33.7157C153.617 33.7082 153.609 33.7032 153.602 33.6963L123.204 3.2959C122.018 2.1106 120.582 1.20555 119 0.646973C117.796 0.219935 116.528 0.00115 115.25 0H104Z" fill="#003310"/>
</svg>
